# Blender v2.62 (sub 0) OBJ File: ''
# www.blender.org
mtllib player.mtl
o Icosphere
v -0.623609 -0.477782 0.768221
v 0.099991 0.075003 1.293941
v -0.899994 0.075003 1.618861
v -1.518034 0.075003 0.768221
v -0.899994 0.075003 -0.082419
v 0.099991 0.075003 0.242501
v -0.347224 0.969433 1.618861
v -1.347209 0.969433 1.293941
v -1.347209 0.969433 0.242501
v -0.347224 0.969433 -0.082419
v 0.270816 0.969433 0.768221
v -0.623609 1.522218 0.768221
v -0.786064 -0.328436 1.268216
v -0.198286 -0.328436 1.077232
v -0.360740 -0.003519 1.577232
v -0.198286 -0.328436 0.459209
v 0.227039 -0.003518 0.768221
v -1.149339 -0.328433 0.768221
v -1.311798 -0.003518 1.268218
v -0.786064 -0.328436 0.268226
v -1.311798 -0.003518 0.268224
v -0.360740 -0.003519 -0.040791
v 0.327449 0.522218 0.459208
v 0.327449 0.522218 1.077234
v -0.035823 0.522218 1.577238
v -0.623609 0.522218 1.768221
v -1.211395 0.522218 1.577238
v -1.574667 0.522218 1.077234
v -1.574667 0.522218 0.459208
v -1.211395 0.522218 -0.040796
v -0.623609 0.522218 -0.231779
v -0.035823 0.522218 -0.040796
v 0.064580 1.047954 1.268218
v -0.886478 1.047956 1.577232
v -1.474257 1.047954 0.768221
v -0.886478 1.047956 -0.040791
v 0.064580 1.047954 0.268224
v -0.097879 1.372870 0.768221
v -0.461153 1.372873 1.268216
v -1.048932 1.372872 1.077232
v -1.048932 1.372872 0.459209
v -0.461153 1.372873 0.268226
vn -0.038547 -0.661687 0.748789
vn 0.187594 -0.794658 0.577345
vn 0.471318 -0.661687 0.583121
vn 0.102381 -0.943524 0.315090
vn 0.700228 -0.661687 0.268049
vn 0.607060 -0.794656 0.000000
vn 0.700228 -0.661688 -0.268049
vn 0.331305 -0.943524 0.000000
vn -0.724044 -0.661694 0.194735
vn -0.491119 -0.794657 0.356821
vn -0.408939 -0.661686 0.628443
vn -0.268034 -0.943523 0.194736
vn -0.408939 -0.661686 -0.628443
vn -0.491120 -0.794657 -0.356821
vn -0.724044 -0.661694 -0.194735
vn -0.268034 -0.943523 -0.194736
vn 0.471318 -0.661687 -0.583121
vn 0.187594 -0.794658 -0.577345
vn -0.038547 -0.661687 -0.748789
vn 0.102381 -0.943524 -0.315090
vn 0.904981 -0.330393 0.268049
vn 0.982246 -0.187599 0.000000
vn 0.992077 0.125631 -0.000000
vn 0.904981 -0.330393 -0.268049
vn 0.024726 -0.330396 0.943519
vn 0.303531 -0.187598 0.934171
vn 0.306568 0.125651 0.943519
vn 0.534590 -0.330395 0.777851
vn -0.889698 -0.330386 0.315092
vn -0.794656 -0.187595 0.577348
vn -0.802607 0.125649 0.583125
vn -0.574584 -0.330397 0.748793
vn -0.574584 -0.330397 -0.748793
vn -0.794656 -0.187595 -0.577348
vn -0.802607 0.125648 -0.583125
vn -0.889698 -0.330386 -0.315092
vn 0.534590 -0.330395 -0.777851
vn 0.303531 -0.187597 -0.934171
vn 0.306568 0.125651 -0.943519
vn 0.024726 -0.330396 -0.943519
vn 0.574584 0.330397 0.748793
vn 0.794656 0.187595 0.577348
vn 0.889698 0.330386 0.315092
vn 0.802607 -0.125649 0.583125
vn -0.534590 0.330395 0.777851
vn -0.303531 0.187598 0.934171
vn -0.024726 0.330396 0.943519
vn -0.306568 -0.125651 0.943519
vn -0.904981 0.330393 -0.268049
vn -0.982246 0.187599 0.000000
vn -0.904981 0.330393 0.268049
vn -0.992077 -0.125631 0.000000
vn -0.024726 0.330396 -0.943519
vn -0.303531 0.187597 -0.934171
vn -0.534590 0.330395 -0.777851
vn -0.306568 -0.125651 -0.943519
vn 0.889698 0.330386 -0.315092
vn 0.794656 0.187595 -0.577348
vn 0.574584 0.330397 -0.748793
vn 0.802607 -0.125648 -0.583125
vn 0.408939 0.661686 0.628443
vn 0.491119 0.794657 0.356821
vn 0.268034 0.943523 0.194737
vn 0.724044 0.661694 0.194735
vn -0.471318 0.661687 0.583121
vn -0.187594 0.794658 0.577345
vn -0.102381 0.943523 0.315090
vn 0.038547 0.661687 0.748789
vn -0.700228 0.661687 -0.268049
vn -0.607061 0.794656 0.000000
vn -0.331305 0.943524 0.000000
vn -0.700228 0.661687 0.268049
vn 0.038547 0.661687 -0.748789
vn -0.187594 0.794658 -0.577345
vn -0.102381 0.943523 -0.315090
vn -0.471318 0.661687 -0.583121
vn 0.724044 0.661694 -0.194735
vn 0.491120 0.794657 -0.356821
vn 0.268034 0.943523 -0.194737
vn 0.408939 0.661686 -0.628443
usemtl 
s off
f 15//1 3//1 13//1
f 13//2 14//2 15//2
f 2//3 15//3 14//3
f 13//4 1//4 14//4
f 17//5 2//5 14//5
f 14//6 16//6 17//6
f 6//7 17//7 16//7
f 14//8 1//8 16//8
f 19//9 4//9 18//9
f 18//10 13//10 19//10
f 3//11 19//11 13//11
f 18//12 1//12 13//12
f 21//13 5//13 20//13
f 20//14 18//14 21//14
f 4//15 21//15 18//15
f 20//16 1//16 18//16
f 22//17 6//17 16//17
f 16//18 20//18 22//18
f 5//19 22//19 20//19
f 16//20 1//20 20//20
f 24//21 2//21 17//21
f 17//22 23//22 24//22
f 11//23 24//23 23//23
f 23//24 17//24 6//24
f 26//25 3//25 15//25
f 15//26 25//26 26//26
f 7//27 26//27 25//27
f 25//28 15//28 2//28
f 28//29 4//29 19//29
f 19//30 27//30 28//30
f 8//31 28//31 27//31
f 27//32 19//32 3//32
f 30//33 5//33 21//33
f 21//34 29//34 30//34
f 9//35 30//35 29//35
f 29//36 21//36 4//36
f 32//37 6//37 22//37
f 22//38 31//38 32//38
f 10//39 32//39 31//39
f 31//40 22//40 5//40
f 33//41 7//41 25//41
f 25//42 24//42 33//42
f 11//43 33//43 24//43
f 24//44 25//44 2//44
f 34//45 8//45 27//45
f 27//46 26//46 34//46
f 7//47 34//47 26//47
f 26//48 27//48 3//48
f 35//49 9//49 29//49
f 29//50 28//50 35//50
f 8//51 35//51 28//51
f 28//52 29//52 4//52
f 36//53 10//53 31//53
f 31//54 30//54 36//54
f 9//55 36//55 30//55
f 30//56 31//56 5//56
f 37//57 11//57 23//57
f 23//58 32//58 37//58
f 10//59 37//59 32//59
f 32//60 23//60 6//60
f 39//61 7//61 33//61
f 33//62 38//62 39//62
f 12//63 39//63 38//63
f 38//64 33//64 11//64
f 40//65 8//65 34//65
f 34//66 39//66 40//66
f 12//67 40//67 39//67
f 39//68 34//68 7//68
f 41//69 9//69 35//69
f 35//70 40//70 41//70
f 12//71 41//71 40//71
f 40//72 35//72 8//72
f 42//73 10//73 36//73
f 36//74 41//74 42//74
f 12//75 42//75 41//75
f 41//76 36//76 9//76
f 38//77 11//77 37//77
f 37//78 42//78 38//78
f 12//79 38//79 42//79
f 42//80 37//80 10//80
